<?xml version="1.0" encoding="UTF-8"?>
<svg version="1.1" xmlns="http://www.w3.org/2000/svg" width="500" height="500">
<path d="M0 0 C1.15270954 0.01457495 1.15270954 0.01457495 2.32870615 0.02944434 C3.14304191 0.03181904 3.95737768 0.03419374 4.7963903 0.03664041 C7.54040259 0.04710381 10.28409848 0.07198751 13.02801645 0.0967356 C14.98887326 0.10715579 16.94973494 0.11669212 18.91060007 0.12540686 C24.2471706 0.15164521 29.58358856 0.19030988 34.92006481 0.23113072 C40.49209007 0.2716649 46.06417413 0.300875 51.6362623 0.33126318 C62.19375599 0.39057256 72.75115653 0.46013243 83.30856204 0.53333402 C95.32526292 0.61615784 107.34202287 0.6876169 119.35880148 0.75809991 C144.08375038 0.90337696 168.80859019 1.06299568 193.53338754 1.2319895 C193.53338754 5.5219895 193.53338754 9.8119895 193.53338754 14.2319895 C127.53338754 14.2319895 61.53338754 14.2319895 -6.46661246 14.2319895 C-6.79661246 10.2719895 -7.12661246 6.3119895 -7.46661246 2.2319895 C-4.94891128 -0.28571168 -3.43300822 0.00245568 0 0 Z " fill="#FCFEFE" transform="translate(159.46661245822906,215.7680104970932)"/>
<path d="M0 0 C1.14952652 -0.00315216 2.29905304 -0.00630432 3.4834137 -0.009552 C4.7404863 -0.00752777 5.9975589 -0.00550354 7.29272461 -0.00341797 C9.23132607 -0.00485306 9.23132607 -0.00485306 11.20909119 -0.00631714 C13.96069521 -0.00779643 16.71226691 -0.00563737 19.46386719 -0.00097656 C22.9434963 0.00463752 26.42304751 0.00141114 29.90267372 -0.00442886 C43.51878811 -0.023713 57.0557974 0.02786643 70.63256836 1.12939453 C70.63256836 5.41939453 70.63256836 9.70939453 70.63256836 14.12939453 C66.41669843 14.83203952 63.02120061 15.25538097 58.8425293 15.25878906 C57.72827576 15.26194122 56.61402222 15.26509338 55.46600342 15.26834106 C53.68446869 15.26530472 53.68446869 15.26530472 51.86694336 15.26220703 C50.02232513 15.26364212 50.02232513 15.26364212 48.14044189 15.2651062 C45.54829863 15.26578534 42.95615365 15.26394961 40.36401367 15.25976562 C37.7024807 15.25617513 35.04114937 15.25521714 32.37963867 15.25976562 C28.5420527 15.26592015 24.70453198 15.26520195 20.86694336 15.26220703 C19.07326324 15.26524338 19.07326324 15.26524338 17.24334717 15.26834106 C16.14170227 15.2651889 15.04005737 15.26203674 13.9050293 15.25878906 C12.93273376 15.25799347 11.96043823 15.25719788 10.9586792 15.25637817 C8.63256836 15.12939453 8.63256836 15.12939453 6.63256836 14.12939453 C6.64509644 14.76418228 6.65762451 15.39897003 6.67053223 16.05299377 C7.01763731 33.76233818 7.32035658 51.47203215 7.57537842 69.18292236 C7.61254293 71.74751168 7.65061843 74.31208802 7.6897583 76.87664795 C7.79155687 83.6070689 7.87342305 90.33704196 7.91967773 97.06808472 C7.93657638 99.10552898 7.96047884 101.14292744 7.99145508 103.1802063 C8.03276395 105.99683927 8.04898248 108.8125002 8.05834961 111.62939453 C8.07581741 112.45475204 8.09328522 113.28010956 8.11128235 114.13047791 C8.09013704 119.64497586 8.09013704 119.64497586 5.73535156 122.13793945 C2.17869643 123.81489017 -0.46181158 123.44436389 -4.36743164 123.12939453 C-6.36743164 121.12939453 -6.36743164 121.12939453 -6.61632061 119.01200771 C-6.61577584 118.13022885 -6.61523108 117.24844999 -6.6146698 116.33995056 C-6.61886429 115.32894791 -6.62305878 114.31794525 -6.62738037 113.27630615 C-6.62176086 112.16297913 -6.61614136 111.0496521 -6.61035156 109.90258789 C-6.61224991 108.73347366 -6.61414825 107.56435944 -6.61610413 106.3598175 C-6.61917979 103.14916481 -6.61328961 99.93868079 -6.60315108 96.72804713 C-6.59438225 93.37327015 -6.59612779 90.01849766 -6.59651184 86.66371155 C-6.59557477 81.0304227 -6.58688446 75.39718766 -6.57324219 69.76391602 C-6.55750859 63.24281299 -6.55224432 56.72176889 -6.55297774 50.20064825 C-6.55358721 43.93650233 -6.54848967 37.67237568 -6.54018593 31.40823555 C-6.53664741 28.73799044 -6.53482187 26.06775215 -6.53429222 23.39750481 C-6.53213625 19.67390818 -6.52340841 15.95038716 -6.51269531 12.22680664 C-6.5131485 11.11145538 -6.51360168 9.99610413 -6.5140686 8.84695435 C-6.50767113 7.3346801 -6.50767113 7.3346801 -6.50114441 5.79185486 C-6.49946856 4.91045302 -6.49779272 4.02905119 -6.49606609 3.12094021 C-6.23181204 -0.97029668 -3.48113356 0.00272753 0 0 Z " fill="#C9D1D3" transform="translate(282.367431640625,262.87060546875)"/>
<path d="M0 0 C7.61541844 5.30512296 12.48637746 11.55764404 14.625 20.66015625 C15.78117286 29.03036604 14.20782446 37.08289208 10.0625 44.4375 C9.0415625 45.7059375 9.0415625 45.7059375 8 47 C7.43023437 47.79921875 6.86046875 48.5984375 6.2734375 49.421875 C1.37483233 54.97699426 -6.17183882 58.34449295 -13.421875 59.5859375 C-22.65297761 59.87302921 -31.99246674 57.41866444 -39.37109375 51.67578125 C-47.59902789 43.21107203 -50.46941822 33.79217618 -50.3359375 22.24609375 C-49.85925858 17.64004509 -48.30321537 13.97921584 -46 10 C-45.34 10 -44.68 10 -44 10 C-43.73703125 9.40316406 -43.4740625 8.80632812 -43.203125 8.19140625 C-40.00193857 2.36067382 -33.46112858 -1.57002199 -27.26953125 -3.5546875 C-18.0921 -5.35542272 -8.08712662 -4.91053657 0 0 Z M-31 14 C-34.59763172 19.29063488 -37.1557687 24.52769525 -36 31 C-33.63675891 37.43883059 -31.21183522 41.89408239 -25 45 C-19.49726147 46.83424618 -14.00738359 46.96508827 -8.75 44.4375 C-4.66336819 40.81525817 -0.75197078 37.25591234 1 32 C1.27040179 26.59196411 1.15636769 22.06277631 -1 17 C-4.76637484 12.88110732 -8.18964703 10.23166423 -13.890625 9.76171875 C-23.24143637 9.47412384 -23.24143637 9.47412384 -31 14 Z " fill="#FDFEFE" transform="translate(272,104)"/>
<path d="M0 0 C6.93 0.495 6.93 0.495 14 1 C13.67 46.21 13.34 91.42 13 138 C8 139 8 139 6.015625 137.85546875 C5.43296875 137.30503906 4.8503125 136.75460937 4.25 136.1875 C3.36054688 135.37345703 3.36054688 135.37345703 2.453125 134.54296875 C-0.23276753 131.69101298 -0.12389406 129.59318767 -0.12025452 125.78622437 C-0.12162918 124.68122086 -0.12300385 123.57621735 -0.12442017 122.43772888 C-0.12082489 121.21997269 -0.11722961 120.00221649 -0.11352539 118.74755859 C-0.11367142 117.4695488 -0.11381744 116.191539 -0.1139679 114.87480164 C-0.11425549 111.36468746 -0.10836491 107.85460727 -0.10139394 104.34450102 C-0.09515406 100.67828766 -0.0945561 97.01207357 -0.09336853 93.34585571 C-0.09025709 86.40084359 -0.08204621 79.45584717 -0.07201904 72.51084197 C-0.06085211 64.60526498 -0.05534599 56.69968725 -0.05032361 48.79410434 C-0.03986345 32.52939344 -0.02206682 16.26469934 0 0 Z " fill="#FDFEFE" transform="translate(229,239)"/>
<path d="M0 0 C-0.33 39.93 -0.66 79.86 -1 121 C-7.435 121.495 -7.435 121.495 -14 122 C-14 82.07 -14 42.14 -14 1 C-9.81537205 -1.09231398 -4.67855628 0 0 0 Z " fill="#FCFDFD" transform="translate(266,239)"/>
<path d="M0 0 C25.74 0 51.48 0 78 0 C78.71168463 3.55842314 79.13682142 6.22721632 79.125 9.75 C79.12886719 10.91789063 79.12886719 10.91789063 79.1328125 12.109375 C79 14 79 14 78 15 C75.56700213 15.12492389 73.16095077 15.18601507 70.72631836 15.20532227 C69.58493156 15.22017166 69.58493156 15.22017166 68.42048645 15.23532104 C65.8936377 15.26702624 63.36677012 15.2917289 60.83984375 15.31640625 C59.09248859 15.33696801 57.34513849 15.35796426 55.59779358 15.37937927 C50.98973682 15.43468041 46.38163459 15.48405408 41.77349854 15.53222656 C37.07486911 15.58238303 32.37630606 15.63809958 27.67773438 15.69335938 C18.45187741 15.80103927 9.22596433 15.90194871 0 16 C0 10.72 0 5.44 0 0 Z " fill="#33CAFA" transform="translate(275,239)"/>
<path d="M0 0 C1.18802719 0.00222061 2.37605438 0.00444122 3.6000824 0.00672913 C4.58053528 0.00651009 4.58053528 0.00651009 5.58079529 0.00628662 C7.75058766 0.00698569 9.92029517 0.01477774 12.09007263 0.02259827 C13.59079949 0.02446247 15.09152696 0.02588636 16.59225464 0.02688599 C20.54934865 0.03071099 24.50640616 0.04054112 28.46348572 0.05158997 C33.20748389 0.06359918 37.95149423 0.06820641 42.69550323 0.07404327 C49.90908302 0.0837529 57.12258269 0.10290954 64.33616638 0.12025452 C64.33616638 10.68025452 64.33616638 21.24025452 64.33616638 32.12025452 C62.00246105 32.12025452 59.66784856 32.09240794 57.33616638 31.99525452 C54.03905819 31.92748328 54.03905819 31.92748328 50.33616638 34.12025452 C50.33616638 27.85025452 50.33616638 21.58025452 50.33616638 15.12025452 C32.84616638 15.12025452 15.35616638 15.12025452 -2.66383362 15.12025452 C-2.99383362 10.50025452 -3.32383362 5.88025452 -3.66383362 1.12025452 C-2.66383362 0.12025452 -2.66383362 0.12025452 0 0 Z " fill="#FCFEFE" transform="translate(155.66383361816406,238.87974548339844)"/>
<path d="M0 0 C0.33 0 0.66 0 1 0 C2.39388132 5.22705497 2 9.17847012 2 15 C22.46 15.33 42.92 15.66 64 16 C63.67 20.29 63.34 24.58 63 29 C37.59 29 12.18 29 -14 29 C-14.33 26.69 -14.66 24.38 -15 22 C-15.226875 20.72125 -15.45375 19.4425 -15.6875 18.125 C-15.67531586 14.98758347 -15.06212767 14.07051373 -12.9453125 11.66796875 C-10.36053158 9.35547187 -7.70214368 7.17328376 -5 5 C-3.96069465 3.99797915 -2.9344638 2.98165735 -1.9375 1.9375 C-1.298125 1.298125 -0.65875 0.65875 0 0 Z " fill="#C9D0D0" transform="translate(290,154)"/>
<path d="M0 0 C0.99 0 1.98 0 3 0 C4.796875 2.59765625 4.796875 2.59765625 6.75 6.0625 C13.17474672 16.98442183 20.30735634 22.32294254 32 27 C32 38.88 32 50.76 32 63 C27.71 63 23.42 63 19 63 C18 62 18 62 17.97827148 59.77514648 C18.04896851 58.33764038 18.04896851 58.33764038 18.12109375 56.87109375 C18.16943359 55.83662109 18.21777344 54.80214844 18.26757812 53.73632812 C18.32365234 52.64771484 18.37972656 51.55910156 18.4375 50.4375 C18.48970703 49.34501953 18.54191406 48.25253906 18.59570312 47.12695312 C18.72583988 44.41774244 18.86233424 41.70883854 19 39 C11.74 39 4.48 39 -3 39 C-3.0271102 34.52079219 -3.04689286 30.04175053 -3.0625 25.5625 C-3.07087891 24.30244141 -3.07925781 23.04238281 -3.08789062 21.74414062 C-3.10526844 15.08843673 -3.09930482 8.57508734 -2 2 C-1.34 1.34 -0.68 0.68 0 0 Z " fill="#D7DEE0" transform="translate(210,144)"/>
<path d="M0 0 C1.07461739 0.00539291 1.07461739 0.00539291 2.17094421 0.01089478 C2.92211517 0.01074875 3.67328613 0.01060272 4.44721985 0.01045227 C6.94166404 0.01115153 9.43603448 0.01894452 11.9304657 0.02676392 C13.65539509 0.02862805 15.38032501 0.03005197 17.10525513 0.03105164 C21.65418448 0.03487719 26.20308211 0.04470779 30.7519989 0.05575562 C35.39025951 0.06596893 40.02852522 0.07054908 44.66679382 0.07559204 C53.77422967 0.08633003 62.88164192 0.1034069 71.98905945 0.12442017 C71.98905945 4.74442017 71.98905945 9.36442017 71.98905945 14.12442017 C46.24905945 14.12442017 20.50905945 14.12442017 -6.01094055 14.12442017 C-7.36495666 11.41638794 -6.92515579 9.55959699 -6.63594055 6.56192017 C-6.54570618 5.5706311 -6.4554718 4.57934204 -6.36250305 3.55801392 C-5.7400418 -0.7508012 -3.95767075 0.00837943 0 0 Z " fill="#FDFEFE" transform="translate(281.0109405517578,192.87557983398438)"/>
<path d="M0 0 C4.62 0 9.24 0 14 0 C14 23.76 14 47.52 14 72 C7.58665496 68.79332748 1.96895726 65.78037792 -1 59 C-2.6569255 49.7783861 -1.79089683 40.20794389 -1.29174805 30.89453125 C-1.11725959 27.40966575 -1.00785253 23.92278414 -0.89257812 20.43554688 C-0.65787285 13.62016406 -0.34609874 6.81062683 0 0 Z " fill="#CFD6D6" transform="translate(183,264)"/>
<path d="M0 0 C22.11 0 44.22 0 67 0 C67 4.29 67 8.58 67 13 C66 14 66 14 63.37413025 14.12025452 C62.20386795 14.11803391 61.03360565 14.11581329 59.82788086 14.11352539 C58.86205833 14.11374443 58.86205833 14.11374443 57.87672424 14.1139679 C55.73939697 14.11326885 53.60215587 14.10547691 51.46484375 14.09765625 C49.98653715 14.09579204 48.50822993 14.09436815 47.02992249 14.09336853 C43.13201198 14.08954359 39.23413851 14.07971352 35.33624268 14.06866455 C31.36153667 14.05844992 27.38682471 14.0538708 23.41210938 14.04882812 C15.60805404 14.03809122 7.80403692 14.02049462 0 14 C0 9.38 0 4.76 0 0 Z " fill="#CACDCD" transform="translate(153,193)"/>
<path d="M0 0 C2.14576637 -0.02685938 4.29162645 -0.04633088 6.4375 -0.0625 C7.63246094 -0.07410156 8.82742187 -0.08570313 10.05859375 -0.09765625 C13 0 13 0 14 1 C14.09429342 3.17805719 14.11742538 5.3592128 14.11352539 7.53930664 C14.11367142 8.22220261 14.11381744 8.90509857 14.1139679 9.60868835 C14.11326876 11.87587614 14.1054764 14.14298274 14.09765625 16.41015625 C14.09579207 17.97814387 14.09436817 19.54613207 14.09336853 21.11412048 C14.08954334 25.24876503 14.07971306 29.38337466 14.06866455 33.51800537 C14.05845044 37.73400398 14.05387091 41.95000822 14.04882812 46.16601562 C14.03809079 54.44402647 14.02101436 62.7220089 14 71 C11.17524829 69.62728838 8.83802528 68.2228447 6.4375 66.1875 C5.85871094 65.70667969 5.27992188 65.22585938 4.68359375 64.73046875 C0.87843597 60.81936691 -0.37601917 57.53093245 -0.34057617 52.1081543 C-0.34034958 50.94732834 -0.34012299 49.78650238 -0.33988953 48.59049988 C-0.32440567 47.34762711 -0.30892181 46.10475433 -0.29296875 44.82421875 C-0.28872391 43.54392288 -0.28447906 42.26362701 -0.28010559 40.9445343 C-0.26869137 37.55286867 -0.23925455 34.16159293 -0.20599365 30.77008057 C-0.17521835 27.30445631 -0.16158439 23.83876861 -0.14648438 20.37304688 C-0.11342192 13.58186271 -0.06322669 6.7909667 0 0 Z " fill="#FCFEFE" transform="translate(206,290)"/>
<path d="M0 0 C0.66 0 1.32 0 2 0 C2.02502598 5.44026366 2.0430116 10.88049259 2.05493164 16.32080078 C2.05990958 18.16520777 2.06669434 20.00961093 2.07543945 21.85400391 C2.12521359 32.6344955 1.93615311 43.25266741 1 54 C-3.62 54 -8.24 54 -13 54 C-13.31763742 48.59366591 -13.58651053 43.18782749 -13.81176758 37.77685547 C-13.89496977 35.93929872 -13.99113239 34.1022788 -14.10083008 32.26611328 C-15.11603974 15.02158411 -15.11603974 15.02158411 -10.6796875 9.9375 C-9.48599627 8.91851807 -8.26098661 7.9344173 -7 7 C-6.04964925 6.01220463 -5.11056175 5.01334261 -4.1875 4 C-2 2 -2 2 0 2 C0 1.34 0 0.68 0 0 Z " fill="#35CFFA" transform="translate(196,129)"/>
<path d="M0 0 C0 11.55 0 23.1 0 35 C-4.29 35 -8.58 35 -13 35 C-13 23.78 -13 12.56 -13 1 C-7 0 -7 0 0 0 Z " fill="#FDFDFE" transform="translate(265,172)"/>
<path d="M0 0 C3.27588147 2.18392098 3.88086664 3.57111989 4.9375 7.375 C5.02065816 12.19817345 3.83965161 14.89522213 0.671875 18.51953125 C-1.8494936 20.92810178 -3.49601321 21.97900055 -7 22.125 C-11.21702393 20.54361603 -14.92237032 18.15525936 -17 14 C-17.40335728 9.80508432 -17.24198067 7.4749991 -15.3125 3.6875 C-10.90983033 -1.4291161 -6.26599742 -1.78279425 0 0 Z " fill="#FCFDFD" transform="translate(264,372)"/>
<path d="M0 0 C3.70390021 2.02666238 5.65363011 3.48044516 8 7 C8.48256365 11.26264558 8.26873267 13.49132744 6.25 17.3125 C2.94117647 21.26470588 2.94117647 21.26470588 0 22 C-4.06624223 22.06558455 -6.57475597 22.0674296 -9.8515625 19.61328125 C-12.73807628 16.56944563 -13.9027788 14.56388296 -14.625 10.375 C-13.900562 6.46303479 -12.79160478 4.79160478 -10 2 C-6.24543433 -0.50304378 -4.45254066 -0.45280074 0 0 Z " fill="#FCFDFD" transform="translate(317,294)"/>
<path d="M0 0 C2.8100346 1.79363911 4.50940468 3.01880935 6 6 C6.3506291 11.34709374 6.44403637 14.62872307 3 19 C-0.48443422 20.74221711 -4.19887045 20.58675154 -8 20 C-11.07469523 18.29748281 -13.40613254 16.18773492 -15 13 C-15.52832728 9.56587269 -15.80518106 7.12676251 -13.71875 4.20703125 C-9.26768837 -0.05182545 -6.05649055 -0.97685331 0 0 Z " fill="#FBFDFD" transform="translate(319,137)"/>
<path d="M0 0 C25.74 0 51.48 0 78 0 C78.495 2.475 78.495 2.475 79 5 C78.34 5.33 77.68 5.66 77 6 C77 4.68 77 3.36 77 2 C52.25 2 27.5 2 2 2 C2 5.63 2 9.26 2 13 C20.48 13 38.96 13 58 13 C58 12.34 58 11.68 58 11 C58.84820312 11.31710938 59.69640625 11.63421875 60.5703125 11.9609375 C64.09477225 13.02871232 67.20670957 13.40041079 70.875 13.625 C72.02742188 13.69976562 73.17984375 13.77453125 74.3671875 13.8515625 C75.67042969 13.92503906 75.67042969 13.92503906 77 14 C77 13.01 77 12.02 77 11 C77.66 11 78.32 11 79 11 C78.67 12.32 78.34 13.64 78 15 C52.26 15.33 26.52 15.66 0 16 C0 10.72 0 5.44 0 0 Z " fill="#5BCAEB" transform="translate(275,239)"/>
<path d="M0 0 C2.8100346 1.79363911 4.50940468 3.01880935 6 6 C6.40417552 8.96395382 6.56382171 11.08904926 4.953125 13.69140625 C3.15636794 15.88450678 1.55808759 17.7209562 -1 19 C-5.65408901 19.4136968 -8.25239476 18.81070393 -12 16 C-14.4915904 12.2626144 -14.45793285 10.42668417 -14 6 C-10.26747896 0.27680107 -6.74763808 -0.96948823 0 0 Z " fill="#FBFDFD" transform="translate(168,164)"/>
<path d="M0 0 C2.9375 2.125 2.9375 2.125 5 5 C5.42036498 8.42297201 5.29470285 10.93906974 4.375 14.25 C2.237048 16.97102982 0.26290998 17.89184189 -3 19 C-6.77623183 18.41403299 -9.26631877 17.48912082 -12.4375 15.375 C-14.70177047 11.93330889 -14.53553789 9.00417564 -14 5 C-13.13220984 2.00217946 -12.48834288 1.29300573 -9.8125 -0.3125 C-6.10672258 -1.2183567 -3.68738897 -0.98769347 0 0 Z " fill="#FCFDFD" transform="translate(168,266)"/>
<path d="M0 0 C2.69626555 2.7936307 3.78325987 5.86211431 4.5 9.625 C3.81441302 12.88153815 2.26028071 14.6067616 0 17 C-2.90295805 18.45147903 -4.77261779 18.37239025 -8 18 C-11.99062431 15.51527166 -13.68655935 14.03251036 -15.0625 9.5 C-14.99256618 5.58370586 -14.48078416 3.99404985 -12 1 C-8.51357791 -1.84078837 -4.04911287 -1.5682015 0 0 Z " fill="#FCFDFD" transform="translate(260,123)"/>
<path d="M0 0 C4.62 0 9.24 0 14 0 C14 23.76 14 47.52 14 72 C10.07755472 70.03877736 7.30164146 67.80515349 4.1875 64.8125 C3.67251953 64.35552734 3.15753906 63.89855469 2.62695312 63.42773438 C1.16796875 62.01953125 1.16796875 62.01953125 -1 59 C-0.82421875 55.13671875 -0.82421875 55.13671875 0 52 C0.33 52 0.66 52 1 52 C1.309375 53.8253125 1.309375 53.8253125 1.625 55.6875 C2.82170794 60.53459762 4.86684092 62.30079407 9 65 C9.99 65 10.98 65 12 65 C12 43.88 12 22.76 12 1 C6.06 1.495 6.06 1.495 0 2 C0 1.34 0 0.68 0 0 Z " fill="#DEE6E9" transform="translate(183,264)"/>
<path d="M0 0 C0.66 0 1.32 0 2 0 C2.02502598 5.44026366 2.0430116 10.88049259 2.05493164 16.32080078 C2.05990958 18.16520777 2.06669434 20.00961093 2.07543945 21.85400391 C2.12521359 32.6344955 1.93615311 43.25266741 1 54 C-3.62 54 -8.24 54 -13 54 C-13.33 41.13 -13.66 28.26 -14 15 C-13.67 15 -13.34 15 -13 15 C-10.46742842 22.73730529 -10.77487461 30.45596388 -10.875 38.5 C-10.88504931 39.90884781 -10.89417171 41.31770255 -10.90234375 42.7265625 C-10.92580031 46.1512205 -10.95862616 49.57551939 -11 53 C-7.37 53 -3.74 53 0 53 C0 36.83 0 20.66 0 4 C-0.99 3.67 -1.98 3.34 -3 3 C-2.01 2.67 -1.02 2.34 0 2 C0 1.34 0 0.68 0 0 Z " fill="#6CCDEF" transform="translate(196,129)"/>
<path d="M0 0 C0.66 0 1.32 0 2 0 C2.02685938 2.14576637 2.04633088 4.29162645 2.0625 6.4375 C2.07410156 7.63246094 2.08570313 8.82742187 2.09765625 10.05859375 C2 13 2 13 1 14 C-1.05556661 14.09413687 -3.11440181 14.11742998 -5.17211914 14.11352539 C-6.13794167 14.11374443 -6.13794167 14.11374443 -7.12327576 14.1139679 C-9.26060303 14.11326885 -11.39784413 14.10547691 -13.53515625 14.09765625 C-15.01346285 14.09579204 -16.49177007 14.09436815 -17.97007751 14.09336853 C-21.86798802 14.08954359 -25.76586149 14.07971352 -29.66375732 14.06866455 C-33.63846333 14.05844992 -37.61317529 14.0538708 -41.58789062 14.04882812 C-49.391944 14.03809122 -57.19596682 14.02101509 -65 14 C-65 10.37 -65 6.74 -65 3 C-64.34 3 -63.68 3 -63 3 C-63 5.64 -63 8.28 -63 11 C-42.54 11 -22.08 11 -1 11 C-0.67 7.37 -0.34 3.74 0 0 Z " fill="#DBE4E7" transform="translate(218,193)"/>
<path d="M0 0 C14.19 0 28.38 0 43 0 C43.495 2.475 43.495 2.475 44 5 C43.34 5.33 42.68 5.66 42 6 C42 4.68 42 3.36 42 2 C28.14 2 14.28 2 0 2 C0 1.34 0 0.68 0 0 Z " fill="#5DC7EF" transform="translate(310,239)"/>
<path d="M0 0 C0.66 0 1.32 0 2 0 C2.04946121 5.62335936 2.08574868 11.2465919 2.10986328 16.87011719 C2.1199169 18.78290004 2.13356173 20.69566755 2.15087891 22.60839844 C2.17515522 25.35876252 2.1864895 28.10892328 2.1953125 30.859375 C2.20563507 31.71368103 2.21595764 32.56798706 2.22659302 33.44818115 C2.22674408 34.24870911 2.22689514 35.04923706 2.22705078 35.87402344 C2.231492 36.57573669 2.23593323 37.27744995 2.24050903 38.00042725 C2 40 2 40 0 44 C0 30.8 0 17.6 0 4 C-0.99 3.67 -1.98 3.34 -3 3 C-2.01 2.67 -1.02 2.34 0 2 C0 1.34 0 0.68 0 0 Z " fill="#6FEEFA" transform="translate(196,129)"/>
<path d="M0 0 C0.33 0.66 0.66 1.32 1 2 C11.89 2 22.78 2 34 2 C34 2.66 34 3.32 34 4 C20.8 4 7.6 4 -6 4 C-6 3.01 -6 2.02 -6 1 C-3.03 1.495 -3.03 1.495 0 2 C0 1.34 0 0.68 0 0 Z " fill="#DCE2E6" transform="translate(297,274)"/>
<path d="M0 0 C18.15 0 36.3 0 55 0 C55 0.33 55 0.66 55 1 C54.36995056 1.01030746 53.73990112 1.02061493 53.09075928 1.03123474 C46.53712715 1.13935941 39.98363085 1.25395274 33.43017578 1.37231445 C30.98391561 1.41564412 28.53762558 1.45732061 26.09130859 1.49731445 C22.57640582 1.55506438 19.06165309 1.61874562 15.546875 1.68359375 C13.9044986 1.70866249 13.9044986 1.70866249 12.22894287 1.73423767 C10.69780853 1.7641555 10.69780853 1.7641555 9.13574219 1.79467773 C7.79005157 1.81799416 7.79005157 1.81799416 6.41717529 1.84178162 C4.15246468 1.99002029 2.17439556 2.36909805 0 3 C0 2.01 0 1.02 0 0 Z " fill="#D1D4D8" transform="translate(153,193)"/>
<path d="M0 0 C0 0.66 0 1.32 0 2 C-1.2065625 3.175625 -1.2065625 3.175625 -2.4375 4.375 C-4.81810326 6.81366675 -5.63635918 7.7272326 -6 11 C-6.78375 10.814375 -7.5675 10.62875 -8.375 10.4375 C-10.97089775 9.74037734 -10.97089775 9.74037734 -13 11 C-11.61369489 7.89797074 -9.99905084 5.67588601 -7.625 3.25 C-7.03976563 2.63640625 -6.45453125 2.0228125 -5.8515625 1.390625 C-4 0 -4 0 0 0 Z " fill="#49DAF2" transform="translate(196,133)"/>
<path d="M0 0 C0.33 0 0.66 0 1 0 C1.309375 1.8253125 1.309375 1.8253125 1.625 3.6875 C2.83344541 8.55580867 4.8574977 10.26594848 9 13 C11.21735439 13.85279338 11.21735439 13.85279338 13 14 C12.67 15.32 12.34 16.64 12 18 C1.68595041 10.55238603 1.68595041 10.55238603 -1 7 C-0.8125 3.1875 -0.8125 3.1875 0 0 Z " fill="#DBE1E6" transform="translate(183,316)"/>
<path d="M0 0 C0.29296875 6.0546875 0.29296875 6.0546875 0 8 C-0.99 8.66 -1.98 9.32 -3 10 C-3.99 9.34 -4.98 8.68 -6 8 C-5.62403791 5.21788056 -5.32681541 3.4120716 -3.5625 1.1875 C-2 0 -2 0 0 0 Z " fill="#26E0FC" transform="translate(196,135)"/>
<path d="M0 0 C1.32 0 2.64 0 4 0 C3.125 3.875 3.125 3.875 2 5 C1.71525984 8.06886617 1.55128201 11.13775297 1.37890625 14.21484375 C1 17 1 17 -1 19 C-1.12086218 12.56744599 -0.82351864 6.38226945 0 0 Z " fill="#C5C7CD" transform="translate(208,146)"/>
<path d="M0 0 C2.42472438 2.51822275 2.99254989 3.67533206 3.07421875 7.234375 C2.94660156 8.39453125 2.81898438 9.5546875 2.6875 10.75 C2.56761719 11.92046875 2.44773438 13.0909375 2.32421875 14.296875 C2.21722656 15.18890625 2.11023438 16.0809375 2 17 C1.67 17 1.34 17 1 17 C0.09586327 13.16275828 -0.10576898 9.62497726 -0.0625 5.6875 C-0.05347656 4.61886719 -0.04445312 3.55023438 -0.03515625 2.44921875 C-0.02355469 1.64097656 -0.01195312 0.83273438 0 0 Z " fill="#3BC3FA" transform="translate(185,164)"/>
<path d="M0 0 C1.6744239 0.6469365 3.34302621 1.30959426 5 2 C5 2.33 5 2.66 5 3 C1.37 3 -2.26 3 -6 3 C-6 2.01 -6 1.02 -6 0 C-3.43417606 -1.28291197 -2.6963913 -0.84743727 0 0 Z " fill="#2DC8EE" transform="translate(283,249)"/>
<path d="M0 0 C0.66 0 1.32 0 2 0 C2 3.96 2 7.92 2 12 C1.01 11.67 0.02 11.34 -1 11 C-0.67 7.37 -0.34 3.74 0 0 Z " fill="#D4DADE" transform="translate(218,193)"/>
<path d="M0 0 C2.97 0 5.94 0 9 0 C9 0.66 9 1.32 9 2 C2.25 3.125 2.25 3.125 0 2 C0 1.34 0 0.68 0 0 Z " fill="#A6B0B4" transform="translate(279,383)"/>
<path d="M0 0 C2.97 1.98 2.97 1.98 6 4 C5.67 4.99 5.34 5.98 5 7 C4.34 6.67 3.68 6.34 3 6 C1.67139075 5.64830932 0.33841672 5.31229724 -1 5 C-0.67 3.35 -0.34 1.7 0 0 Z " fill="#CBCFD3" transform="translate(224,161)"/>
<path d="M0 0 C0.33 1.32 0.66 2.64 1 4 C-1.31 4 -3.62 4 -6 4 C-6 3.01 -6 2.02 -6 1 C-3.03 1.495 -3.03 1.495 0 2 C0 1.34 0 0.68 0 0 Z " fill="#D5DAE2" transform="translate(297,274)"/>
<path d="M0 0 C0.99 0 1.98 0 3 0 C4.75 2.3125 4.75 2.3125 6 5 C5.67 5.99 5.34 6.98 5 8 C2.5 5.6875 2.5 5.6875 0 3 C0 2.01 0 1.02 0 0 Z " fill="#CDD2D8" transform="translate(210,144)"/>
<path d="M0 0 C0.33 0 0.66 0 1 0 C1 2.31 1 4.62 1 7 C-0.65 7 -2.3 7 -4 7 C-3 4 -3 4 -1 2 C-0.67 1.34 -0.34 0.68 0 0 Z " fill="#27D2F4" transform="translate(194,174)"/>
</svg>
